<?xml version="1.0" encoding="UTF-8"?>
<svg xmlns="http://www.w3.org/2000/svg" xmlns:xlink="http://www.w3.org/1999/xlink" width="13pt" height="13pt" viewBox="0 0 15 15" version="1.1">
<g id="surface1">
<path style=" stroke:none;fill-rule:nonzero;fill: #526278;fill-opacity:1;" d="M 14.984375 7.371094 C 14.984375 6.953125 14.824219 6.5625 14.53125 6.265625 L 10.210938 1.945312 C 9.882812 1.617188 9.355469 1.617188 9.03125 1.945312 C 8.703125 2.269531 8.703125 2.800781 9.03125 3.125 L 12.554688 6.648438 L 0.828125 6.648438 C 0.367188 6.648438 0 7.027344 0 7.488281 C 0 7.488281 0 7.496094 0 7.496094 C 0 7.957031 0.367188 8.339844 0.828125 8.339844 L 12.554688 8.339844 L 9.03125 11.859375 C 8.707031 12.1875 8.707031 12.714844 9.03125 13.039062 C 9.355469 13.367188 9.886719 13.367188 10.210938 13.039062 L 14.53125 8.714844 C 14.824219 8.421875 14.984375 8.03125 14.984375 7.613281 C 14.984375 7.574219 14.984375 7.410156 14.984375 7.371094 Z M 14.984375 7.371094 "/>
</g>
</svg>
